STARTFONT 2.1
COMMENT
COMMENT Converted from OpenType font "Alphakind.otf" by "otf2bdf 3.0".
COMMENT
FONT -FreeType-Alphakind-Medium-R-Normal--39-280-100-100-P-180-ISO10646-1
SIZE 28 100 100
FONTBOUNDINGBOX 44 49 -2 -10
STARTPROPERTIES 19
FOUNDRY "FreeType"
FAMILY_NAME "Alphakind"
WEIGHT_NAME "Medium"
SLANT "R"
SETWIDTH_NAME "Normal"
ADD_STYLE_NAME ""
PIXEL_SIZE 39
POINT_SIZE 280
RESOLUTION_X 100
RESOLUTION_Y 100
SPACING "P"
AVERAGE_WIDTH 180
CHARSET_REGISTRY "ISO10646"
CHARSET_ENCODING "1"
FONT_ASCENT 37
FONT_DESCENT 8
COPYRIGHT "Copyright (c) 2020 by Khurasan. All rights reserved."
_OTF_FONTFILE "Alphakind.otf"
_OTF_PSNAME "Alphakind"
ENDPROPERTIES
CHARS 189
STARTCHAR 0000
ENCODING 0
SWIDTH 0 0
DWIDTH 0 0
BBX 0 0 0 0
BITMAP
ENDCHAR
STARTCHAR 000D
ENCODING 13
SWIDTH 308 0
DWIDTH 12 0
BBX 0 0 0 0
BITMAP
ENDCHAR
STARTCHAR 0020
ENCODING 32
SWIDTH 308 0
DWIDTH 12 0
BBX 0 0 0 0
BITMAP
ENDCHAR
STARTCHAR 0021
ENCODING 33
SWIDTH 308 0
DWIDTH 12 0
BBX 7 29 2 0
BITMAP
FE
FE
FE
FE
FE
FE
FE
FE
FE
FE
FE
FE
FE
FE
FE
FE
FE
FE
FE
FE
00
00
38
7C
FE
FE
FE
7E
3C
ENDCHAR
STARTCHAR 0022
ENCODING 34
SWIDTH 411 0
DWIDTH 16 0
BBX 12 9 2 20
BITMAP
F9F0
F9F0
F9E0
F9E0
F1E0
F1C0
F3C0
E3C0
E3C0
ENDCHAR
STARTCHAR 0023
ENCODING 35
SWIDTH 745 0
DWIDTH 29 0
BBX 24 25 2 0
BITMAP
0FE3F8
0FE3F8
0FE3F8
FFFFFF
FFFFFF
FFFFFF
FFFFFF
FFFFFF
FFFFFF
FFFFFF
0FE3F8
0FE3F8
0FE3F8
0FE3F8
FFFFFF
FFFFFF
FFFFFF
FFFFFF
FFFFFF
FFFFFF
FFFFFF
0FE3F8
0FE3F8
0FE3F8
0FE000
ENDCHAR
STARTCHAR 0024
ENCODING 36
SWIDTH 488 0
DWIDTH 19 0
BBX 16 30 2 0
BITMAP
0FE0
0FE0
0FE0
0FE0
0FFC
3FFE
7FFC
7FFC
FFF8
FFF8
FE30
FF80
FFF0
FFF8
7FFC
3FFE
0FFE
01FF
007F
187F
7FFF
FFFE
FFFE
7FFC
3FF8
0FF0
0FE0
0FE0
0FE0
0FE0
ENDCHAR
STARTCHAR 0025
ENCODING 37
SWIDTH 797 0
DWIDTH 31 0
BBX 28 29 1 0
BITMAP
06008000
1FC1E000
3FE1FC00
7FE1FC00
79F3FC00
F0F3F800
F0F7F800
70F7F000
7FE7F000
7FEFF000
3FCFE000
0F9FE000
001FE000
001FC000
003FC000
003F8000
003F8000
007F8200
007F1FC0
00FF3FE0
00FF7FF0
00FE78F0
01FE7870
01FC7070
01FC78F0
03FC7FF0
03F83FE0
00781FC0
00180F80
ENDCHAR
STARTCHAR 0026
ENCODING 38
SWIDTH 694 0
DWIDTH 27 0
BBX 25 29 1 0
BITMAP
01FC0000
07FC0000
0FFC0000
1FFC0000
3FFC0000
7FF80000
7FC80000
7F000000
FE000000
FE000000
7F9C0000
7FFC0000
7FFC0000
3FFC0000
3FFFFF80
7FFFFF80
7FFFFF80
7F07FF80
7E07FF80
7E07FF80
7E01FC00
7F03FC00
7FCFF800
3FFFF800
3FFFF000
1FFFE000
0FFFC000
07FF0000
01FC0000
ENDCHAR
STARTCHAR 0027
ENCODING 39
SWIDTH 257 0
DWIDTH 10 0
BBX 5 9 2 20
BITMAP
F8
F8
F8
F8
F0
F0
F0
E0
E0
ENDCHAR
STARTCHAR 0028
ENCODING 40
SWIDTH 360 0
DWIDTH 14 0
BBX 12 37 1 -6
BITMAP
0200
0780
07C0
0FF0
0FE0
1FE0
1FC0
1FC0
3FC0
3F80
3F80
7F80
7F00
7F00
7F00
7F00
7F00
7E00
FE00
FE00
FE00
FE00
7F00
7F00
7F00
7F00
7F00
7F80
3F80
3FC0
3FC0
1FE0
1FF0
0FE0
0F80
0700
0200
ENDCHAR
STARTCHAR 0029
ENCODING 41
SWIDTH 360 0
DWIDTH 14 0
BBX 12 37 1 -6
BITMAP
0400
0E00
3E00
FF00
7F00
7F80
3F80
3F80
3FC0
1FC0
1FC0
1FE0
0FE0
0FE0
0FE0
0FE0
0FE0
0FF0
07F0
07F0
07F0
07F0
0FE0
0FE0
0FE0
0FE0
0FE0
1FE0
1FC0
3FC0
3FC0
7F80
7F80
7F00
1F00
0E00
0400
ENDCHAR
STARTCHAR 002A
ENCODING 42
SWIDTH 257 0
DWIDTH 10 0
BBX 8 8 1 21
BITMAP
18
18
5A
FF
1C
3C
66
20
ENDCHAR
STARTCHAR 002B
ENCODING 43
SWIDTH 488 0
DWIDTH 19 0
BBX 16 15 2 4
BITMAP
07C0
07C0
07C0
07C0
07C0
FFFF
FFFF
FFFF
FFFF
FFFF
07C0
07C0
07C0
07C0
07C0
ENDCHAR
STARTCHAR 002C
ENCODING 44
SWIDTH 282 0
DWIDTH 11 0
BBX 7 9 2 -3
BITMAP
FE
FE
FC
FC
F8
F8
F0
F0
E0
ENDCHAR
STARTCHAR 002D
ENCODING 45
SWIDTH 437 0
DWIDTH 17 0
BBX 13 5 2 9
BITMAP
FFF8
FFF8
FFF8
FFF8
FFF8
ENDCHAR
STARTCHAR 002E
ENCODING 46
SWIDTH 334 0
DWIDTH 13 0
BBX 7 8 3 0
BITMAP
78
FC
FE
FE
FE
FE
FC
38
ENDCHAR
STARTCHAR 002F
ENCODING 47
SWIDTH 437 0
DWIDTH 17 0
BBX 15 29 1 0
BITMAP
0020
007C
007E
007C
00FC
00FC
00F8
01F8
01F0
03F0
03F0
03E0
07E0
07E0
07C0
0FC0
0FC0
0F80
1F80
1F00
3F00
3F00
3E00
7E00
7E00
7C00
FC00
7C00
0800
ENDCHAR
STARTCHAR 0030
ENCODING 48
SWIDTH 591 0
DWIDTH 23 0
BBX 21 29 1 0
BITMAP
00F800
03FE00
07FF00
0FFF80
1FFFC0
3FFFE0
3FFFE0
3F8FF0
7F07F0
7F03F0
7E03F0
FE03F8
FE01F8
FC01F8
FC01F8
FC01F8
FE01F8
FE03F8
7E03F0
7F03F0
7F07F0
7F8FF0
3FFFE0
3FFFE0
1FFFC0
0FFF80
07FF00
03FE00
00F800
ENDCHAR
STARTCHAR 0031
ENCODING 49
SWIDTH 308 0
DWIDTH 12 0
BBX 10 29 1 0
BITMAP
1FC0
FFC0
FFC0
FFC0
7FC0
7FC0
7FC0
7FC0
1FC0
1FC0
1FC0
1FC0
1FC0
1FC0
1FC0
1FC0
1FC0
1FC0
1FC0
1FC0
1FC0
1FC0
1FC0
1FC0
1FC0
1FC0
1FC0
1FC0
1FC0
ENDCHAR
STARTCHAR 0032
ENCODING 50
SWIDTH 565 0
DWIDTH 22 0
BBX 20 29 1 0
BITMAP
00FC00
07FF00
0FFF80
1FFFC0
3FFFE0
3FFFE0
7FFFE0
7F8FF0
7F07F0
FE07F0
C007F0
000FF0
000FE0
001FE0
003FE0
007FC0
01FFC0
03FF80
0FFF00
1FFE00
3FFC00
7FF000
7FFFE0
7FFFE0
7FFFE0
7FFFE0
7FFFE0
7FFFE0
7FFFE0
ENDCHAR
STARTCHAR 0033
ENCODING 51
SWIDTH 540 0
DWIDTH 21 0
BBX 18 29 1 -1
BITMAP
1FC000
1FF800
1FFC00
1FFE00
1FFF00
1FFF00
1FFF00
007F00
007F00
01FE00
03FE00
03FE00
03FF00
03FF80
03FF80
01FFC0
003FC0
001FC0
001FC0
001FC0
083FC0
1E7FC0
3FFF80
7FFF80
7FFF00
FFFE00
7FFC00
3FF800
07E000
ENDCHAR
STARTCHAR 0034
ENCODING 52
SWIDTH 488 0
DWIDTH 19 0
BBX 17 29 1 0
BITMAP
FE0000
FE0000
FE0000
FE0000
FE0000
FE7F00
FE7F00
FE7F00
FE7F00
FE7F00
FE7F00
FE7F00
FE7F00
FE7F00
FE7F00
FFFF80
FFFF80
FFFF80
FFFF80
FFFF80
FFFF80
FFFF80
007F00
007F00
007F00
007F00
007F00
007F00
007F00
ENDCHAR
STARTCHAR 0035
ENCODING 53
SWIDTH 540 0
DWIDTH 21 0
BBX 18 29 1 -1
BITMAP
FFFF00
FFFF00
FFFF00
FFFF00
FFFF00
FFFF00
FFFF00
FE0000
FE0000
FF8000
FFF800
FFFC00
FFFF00
FFFF00
FFFF80
FFFFC0
007FC0
003FC0
001FC0
001FC0
003FC0
007FC0
3FFF80
3FFF80
7FFF00
7FFE00
7FFC00
FFF000
7F8000
ENDCHAR
STARTCHAR 0036
ENCODING 54
SWIDTH 540 0
DWIDTH 21 0
BBX 19 29 1 -2
BITMAP
001000
003000
00F800
01FC00
03FE00
03FF00
07FE00
0FF800
1FF000
1FFC00
3FFF00
3FFF80
7FFF80
7FFFC0
7FFFC0
FF9FC0
FF1FE0
FE0FE0
FE0FE0
FE0FE0
FF0FE0
7F1FE0
7FFFC0
7FFFC0
3FFF80
1FFF80
1FFF00
07FE00
01F800
ENDCHAR
STARTCHAR 0037
ENCODING 55
SWIDTH 488 0
DWIDTH 19 0
BBX 17 29 1 0
BITMAP
7FFF80
7FFF80
7FFF80
7FFF80
7FFF80
7FFF80
7FFF80
7FFF80
00FF00
00FF00
01FE00
01FE00
03FC00
03FC00
07F800
07F800
0FF000
0FF000
1FE000
1FE000
1FC000
3FC000
3F8000
7F8000
7F8000
7F0000
7F0000
FF0000
3F0000
ENDCHAR
STARTCHAR 0038
ENCODING 56
SWIDTH 565 0
DWIDTH 22 0
BBX 19 29 1 0
BITMAP
01F000
07FC00
0FFE00
1FFF00
1FFF80
1FFF80
3FBF80
3F9F80
3FBF80
1FFF80
1FFF80
1FFF00
1FFF80
3FFFC0
7FFFC0
7FFFE0
FFFFE0
FF0FE0
FE0FE0
FE0FE0
FF0FE0
FF1FE0
7FFFE0
7FFFC0
3FFFC0
3FFF80
1FFF00
07FE00
01F800
ENDCHAR
STARTCHAR 0039
ENCODING 57
SWIDTH 540 0
DWIDTH 21 0
BBX 19 30 1 1
BITMAP
03F000
0FFC00
1FFE00
3FFF00
3FFF80
7FFFC0
7FFFC0
FF3FC0
FE1FC0
FE0FE0
FE0FE0
FE0FE0
FE0FE0
FF1FE0
7FFFC0
7FFFC0
7FFFC0
3FFFC0
1FFF80
0FFF80
07FF00
03FE00
07FE00
0FFC00
0FF800
0FF000
07E000
03C000
018000
010000
ENDCHAR
STARTCHAR 003A
ENCODING 58
SWIDTH 308 0
DWIDTH 12 0
BBX 8 19 2 2
BITMAP
1C
7E
7F
7F
FF
7F
7E
1C
00
00
00
1C
7E
7F
7F
FF
7F
7E
1C
ENDCHAR
STARTCHAR 003B
ENCODING 59
SWIDTH 308 0
DWIDTH 12 0
BBX 8 22 2 -1
BITMAP
1C
7E
7F
7F
FF
7F
7E
1C
00
00
00
00
00
FE
FE
FC
FC
F8
F8
F0
F0
E0
ENDCHAR
STARTCHAR 003C
ENCODING 60
SWIDTH 514 0
DWIDTH 20 0
BBX 16 20 2 3
BITMAP
001C
007C
01FE
03FE
0FFF
3FFF
FFFE
FFF8
FFE0
FF80
FFE0
FFF0
7FFC
3FFE
0FFF
03FE
01FE
007C
0038
0008
ENDCHAR
STARTCHAR 003D
ENCODING 61
SWIDTH 411 0
DWIDTH 16 0
BBX 13 11 2 6
BITMAP
FFF8
FFF8
FFF8
FFF8
FFF8
0000
FFF8
FFF8
FFF8
FFF8
FFF8
ENDCHAR
STARTCHAR 003E
ENCODING 62
SWIDTH 514 0
DWIDTH 20 0
BBX 17 20 2 3
BITMAP
180000
3E0000
3F8000
7FE000
FFF800
FFFE00
3FFF80
1FFF80
07FF80
01FF80
03FF80
0FFF80
1FFE00
7FFC00
FFF000
7FE000
3F8000
3F0000
1C0000
080000
ENDCHAR
STARTCHAR 003F
ENCODING 63
SWIDTH 514 0
DWIDTH 20 0
BBX 18 29 1 1
BITMAP
FFC000
FFF800
7FFC00
7FFE00
7FFF00
7FFF80
61FF80
007F80
003FC0
003F80
007F80
3FFF80
7FFF00
7FFE00
7FFC00
7FF800
7FE000
7F8000
7F0000
7F0000
000000
000000
3E0000
7F0000
7F0000
FF0000
7F0000
7F0000
3C0000
ENDCHAR
STARTCHAR 0040
ENCODING 64
SWIDTH 797 0
DWIDTH 31 0
BBX 28 30 1 -1
BITMAP
001FF000
00FFFC00
01FFFE00
07FFFF00
0FFFFF80
0FF03FC0
1FC00FE0
3F8007E0
3F0FF3E0
7E3FF3F0
7E7FF3F0
7C7FF1F0
7CFFF1F0
FCFDF1F0
FCF9F1F0
FCF9F1F0
FCFFF1F0
FCFFF1F0
7C7FF3F0
7C3FFFE0
7E1FFFE0
7E00FFC0
3F007F80
3FC03F00
1FF80000
0FFFC000
07FFC000
03FFC000
00FFC000
001FE000
ENDCHAR
STARTCHAR 0041
ENCODING 65
SWIDTH 617 0
DWIDTH 24 0
BBX 22 30 1 0
BITMAP
01FF80
01FF80
03FF80
03FF80
03FFC0
03FFC0
07FFC0
07FFC0
07FFC0
07FFE0
0FEFE0
0FEFE0
0FEFE0
1FEFE0
1FCFF0
1FC7F0
1FC7F0
3FC7F0
3FFFF0
3FFFF8
7FFFF8
7FFFF8
7FFFF8
7FFFFC
FFFFFC
FE01FC
FE01FC
FE01FC
FC00C0
0C0000
ENDCHAR
STARTCHAR 0042
ENCODING 66
SWIDTH 591 0
DWIDTH 23 0
BBX 19 30 2 0
BITMAP
FFE000
FFF800
FFFE00
FFFF00
FFFF80
FFFFC0
FFFFC0
FE3FC0
FE1FC0
FE3FC0
FC7FC0
FFFF80
FFFF00
FFFF00
FFFF80
FFFFC0
FFFFC0
FFFFE0
FE1FE0
FE0FE0
FE0FE0
FE1FE0
FE3FE0
FFFFC0
FFFFC0
FFFF80
FFFF00
FFFE00
FFF800
FFC000
ENDCHAR
STARTCHAR 0043
ENCODING 67
SWIDTH 642 0
DWIDTH 25 0
BBX 23 29 1 1
BITMAP
003E00
01FFC0
07FFF0
0FFFF8
1FFFFC
1FFFFC
3FFFFC
3FE3F0
7F80C0
7F0000
7F0000
FF0000
FE0000
FE0000
FE0000
FE0000
FE0000
FF0000
7F00FE
7F00FE
7F81FE
7FC3FC
3FFFFC
3FFFFC
1FFFF8
0FFFF0
07FFE0
03FFC0
007F00
ENDCHAR
STARTCHAR 0044
ENCODING 68
SWIDTH 617 0
DWIDTH 24 0
BBX 20 28 2 1
BITMAP
FF8000
FFF000
FFFC00
FFFE00
FFFF00
FFFF80
FFFFC0
FFFFE0
FE7FE0
FE1FF0
FE0FF0
FE07F0
FE07F0
FE07F0
FE07F0
FE07F0
FE0FF0
FE0FF0
FE1FE0
FE3FE0
FFFFC0
FFFFC0
FFFF80
FFFF00
FFFE00
FFF800
FFF000
FF8000
ENDCHAR
STARTCHAR 0045
ENCODING 69
SWIDTH 488 0
DWIDTH 19 0
BBX 17 29 1 0
BITMAP
FFFF80
FFFF80
FFFF80
FFFF80
FFFF80
FFFF80
FFFF80
FF0000
FF0000
FF0000
FF0000
FF0000
FFF800
FFF800
FFF800
FFF800
FFF800
FFF800
FFF800
FF0000
FF0000
FF0000
FFFF80
FFFF80
FFFF80
FFFF80
FFFF80
FFFF80
FFFF80
ENDCHAR
STARTCHAR 0046
ENCODING 70
SWIDTH 462 0
DWIDTH 18 0
BBX 15 28 2 0
BITMAP
FFFE
FFFE
FFFE
FFFE
FFFE
FFFE
FFFE
FE00
FE00
FE00
FE00
FFF0
FFF0
FFF0
FFF0
FFF0
FFF0
FFF0
FE00
FE00
FE00
FE00
FE00
FE00
FE00
FE00
FE00
FE00
ENDCHAR
STARTCHAR 0047
ENCODING 71
SWIDTH 694 0
DWIDTH 27 0
BBX 24 29 1 0
BITMAP
003F80
01FFE0
03FFF8
07FFF8
0FFFF0
1FFFE0
1FFFE0
3FE0C0
3FC000
7F8000
7F0000
7F0000
FF0000
FE0FFF
FE0FFF
FE0FFF
FE0FFF
FE0FFF
7F0FFF
7F0FFF
7F807F
7FC0FE
3FFFFE
1FFFFE
1FFFFC
0FFFF8
07FFF0
01FFE0
007F80
ENDCHAR
STARTCHAR 0048
ENCODING 72
SWIDTH 642 0
DWIDTH 25 0
BBX 21 30 1 -1
BITMAP
FE03F8
FE03F8
FE03F8
FE03F8
FE03F8
FE03F8
FE03F8
FE03F8
FE03F8
FE03F8
FE03F8
FE03F8
FE03F8
FE03F8
FE03F8
FE03F8
FE03F8
FFFFF8
FFFFF8
FFFFF8
FFFFF8
FFFFF8
FFFFF8
FFFFF8
FE03F8
FE03F8
FE03F8
FE03F8
0003F8
0003F8
ENDCHAR
STARTCHAR 0049
ENCODING 73
SWIDTH 257 0
DWIDTH 10 0
BBX 7 27 2 0
BITMAP
FE
FE
FE
FE
FE
FE
FE
FE
FE
FE
FE
FE
FE
FE
FE
FE
FE
FE
FE
FE
FE
FE
FE
FE
FE
FE
FE
ENDCHAR
STARTCHAR 004A
ENCODING 74
SWIDTH 540 0
DWIDTH 21 0
BBX 19 30 1 -5
BITMAP
000FE0
000FE0
000FE0
000FE0
000FE0
000FE0
000FE0
000FE0
000FE0
000FE0
000FE0
000FE0
000FE0
000FE0
000FE0
000FE0
000FE0
000FE0
000FE0
000FE0
FE0FE0
FF1FE0
7F1FC0
7FFFC0
7FFFC0
3FFF80
3FFF00
1FFE00
07FC00
01E000
ENDCHAR
STARTCHAR 004B
ENCODING 75
SWIDTH 540 0
DWIDTH 21 0
BBX 19 29 1 0
BITMAP
FE0000
FE0600
FE0F00
FE1F80
FE3FC0
FE7FC0
FEFFC0
FFFF80
FFFF00
FFFE00
FFFC00
FFF800
FFF000
FFE000
FFE000
FFF000
FFF800
FFF800
FFFC00
FFFE00
FFFF00
FEFF00
FEFF80
FE7FC0
FE3FE0
FE1FE0
FE1F80
FE0F00
000600
ENDCHAR
STARTCHAR 004C
ENCODING 76
SWIDTH 437 0
DWIDTH 17 0
BBX 13 29 2 0
BITMAP
FE00
FE00
FE00
FE00
FE00
FE00
FE00
FE00
FE00
FE00
FE00
FE00
FE00
FE00
FE00
FE00
FE00
FE00
FE00
FE00
FE00
FE00
FFF8
FFF8
FFF8
FFF8
FFF8
FFF8
FFF8
ENDCHAR
STARTCHAR 004D
ENCODING 77
SWIDTH 797 0
DWIDTH 31 0
BBX 29 30 1 0
BITMAP
00000060
3FC01FE0
3FC01FE0
3FE01FE0
3FE03FE0
3FE03FE0
3FF03FE0
3FF03FE0
7FF07FE0
7FF87FF0
7FF87FF0
7FF8FFF0
7FFCFFF0
7FFCFFF0
7FFDFFF0
7FFFFFF0
7FFFFFF0
7FFFFFF0
7FFFFFF0
7F7FFFF0
7F7FFFF0
7F7FFFF0
7F3FF7F0
7F3FF7F8
7F1FE3F8
FE1FE3F8
FE1FE3F8
FE0FC3F8
FE0FC3F8
1E078000
ENDCHAR
STARTCHAR 004E
ENCODING 78
SWIDTH 642 0
DWIDTH 25 0
BBX 23 27 1 0
BITMAP
0000FE
FF00FE
FF80FE
FF80FE
FFC0FE
FFC0FE
FFE0FE
FFF0FE
FFF0FE
FFF8FE
FFFCFE
FFFCFE
FFFEFE
FFFEFE
FFFFFE
FEFFFE
FE7FFE
FE7FFE
FE3FFE
FE1FFE
FE1FFE
FE0FFE
FE07FE
FE03FE
FE03FE
FE01FE
0000FE
ENDCHAR
STARTCHAR 004F
ENCODING 79
SWIDTH 745 0
DWIDTH 29 0
BBX 27 29 1 0
BITMAP
003F8000
00FFE000
03FFF800
07FFFC00
0FFFFE00
1FFFFF00
3FFFFF80
3FE0FF80
7FC07FC0
7F803FC0
7F001FC0
7F001FE0
FE000FE0
FE000FE0
FE000FE0
FE000FE0
FE000FE0
FF001FE0
7F001FC0
7F803FC0
7FC07FC0
3FE0FF80
3FFFFF80
1FFFFF00
0FFFFE00
07FFFC00
03FFF800
00FFE000
003F8000
ENDCHAR
STARTCHAR 0050
ENCODING 80
SWIDTH 591 0
DWIDTH 23 0
BBX 21 29 1 1
BITMAP
FFF800
FFFE00
FFFF80
FFFFC0
FFFFC0
FFFFE0
FFFFF0
FE1FF0
FE07F0
FE07F8
FE03F8
FE03F8
FE03F8
FE03F8
FE07F8
FE0FF0
FE0FF0
FE3FF0
FFFFE0
FFFFE0
FFFFC0
FFFF80
FFFF00
FFFC00
FFE000
FE0000
FE0000
FE0000
FE0000
ENDCHAR
STARTCHAR 0051
ENCODING 81
SWIDTH 745 0
DWIDTH 29 0
BBX 27 31 1 -3
BITMAP
003F8000
00FFE000
03FFF800
07FFFC00
0FFFFE00
1FFFFF00
3FFFFF80
3FE0FF80
7FC07FC0
7F803FC0
7F001FC0
FF001FE0
FE001FE0
FE000FE0
FE000FE0
FE000FE0
FE000FE0
FF007FE0
7F01FFC0
7F83FFC0
7FC7FFC0
3FE7FF80
3FFFFF80
1FFFFF00
0FFFFE00
07FFFE00
03FFFE00
00FFFF00
003FFE00
00003C00
00003000
ENDCHAR
STARTCHAR 0052
ENCODING 82
SWIDTH 540 0
DWIDTH 21 0
BBX 18 29 2 1
BITMAP
FF8000
FFF000
FFFC00
FFFE00
FFFF00
FFFF80
FFFF80
FE7F80
FE3FC0
FE1FC0
FE1FC0
FE1FC0
FE3FC0
FE7F80
FEFF80
FFFF80
FFFF00
FFFE00
FFFC00
FFF800
FFF000
FFF800
FFFF80
FFFF80
FFFF80
FFFF80
FEFF80
FE7FC0
FE0FC0
ENDCHAR
STARTCHAR 0053
ENCODING 83
SWIDTH 565 0
DWIDTH 22 0
BBX 19 29 1 -1
BITMAP
01F800
07FF00
0FFF80
1FFFC0
3FFFE0
3FFFE0
3FFF80
7FDF00
7F8400
7FC000
3FF800
3FFC00
3FFF00
1FFF80
0FFF80
03FFC0
00FFE0
003FE0
001FE0
000FE0
060FE0
3F1FE0
FFFFE0
7FFFC0
7FFFC0
3FFF80
1FFF00
0FFE00
07FC00
ENDCHAR
STARTCHAR 0054
ENCODING 84
SWIDTH 488 0
DWIDTH 19 0
BBX 18 29 1 0
BITMAP
FFFFC0
FFFFC0
FFFFC0
FFFFC0
FFFFC0
FFFFC0
FFFFC0
03F800
03F800
03F800
03F800
03F800
03F800
03F800
03F800
03F800
03F800
03F800
03F800
03F800
03F800
03F800
03F800
03F800
03F800
03F800
03F800
03F800
03F800
ENDCHAR
STARTCHAR 0055
ENCODING 85
SWIDTH 642 0
DWIDTH 25 0
BBX 23 29 1 0
BITMAP
00007C
7C01FC
7F01FC
7F01FC
7F01FC
7F01FC
FE01FC
FE01FC
FE00FE
FE00FE
FE00FE
FE00FE
FE00FE
FE00FE
FE01FC
FE01FC
7E01FC
7E01FC
7F01FC
7F03FC
7F03F8
3F87F8
3FFFF8
3FFFF0
1FFFF0
0FFFE0
0FFFC0
03FF80
00FC00
ENDCHAR
STARTCHAR 0056
ENCODING 86
SWIDTH 617 0
DWIDTH 24 0
BBX 22 29 1 0
BITMAP
0601E0
7E01FC
FE01FC
FE01FC
FF03FC
7F03F8
7F03F8
7F83F8
3F87F0
3F87F0
3F87F0
3FCFF0
1FCFE0
1FCFE0
1FEFE0
0FFFE0
0FFFC0
0FFFC0
0FFFC0
07FFC0
07FF80
07FF80
03FF80
03FF00
03FF00
03FF00
01FF00
01FE00
01FE00
ENDCHAR
STARTCHAR 0057
ENCODING 87
SWIDTH 925 0
DWIDTH 36 0
BBX 34 32 1 0
BITMAP
0200000000
1E00000000
FE00001000
FE01F81F00
FF01F83FC0
7F01F83F80
7F03F83F80
7F83FC3F80
3F87FC7F80
3F87FC7F00
3FC7FC7F00
3FCFFE7F00
1FCFFEFE00
1FCFFEFE00
1FFFFFFE00
0FFFFFFE00
0FFFFFFC00
0FFFFFFC00
07FFBFFC00
07FFBFFC00
07FFBFF800
07FFBFF800
03FF1FF800
03FF1FF800
03FF1FF000
01FF1FF000
01FE1FF000
01FE0FF000
00FE0FE000
00FE0FE000
00FC0FE000
00FC0FE000
ENDCHAR
STARTCHAR 0058
ENCODING 88
SWIDTH 617 0
DWIDTH 24 0
BBX 22 28 1 1
BITMAP
070180
1F01E0
7F83F0
7F87FC
3FCFF8
3FEFF0
1FFFF0
0FFFE0
0FFFC0
07FFC0
07FF80
03FF00
01FE00
03FE00
03FF00
07FF00
0FFF80
0FFFC0
1FFFC0
3FFFE0
3FDFE0
7F8FF0
FF8FF0
7F07F8
3E07FC
0E03F0
0401C0
000100
ENDCHAR
STARTCHAR 0059
ENCODING 89
SWIDTH 668 0
DWIDTH 26 0
BBX 24 29 1 0
BITMAP
040020
0E0078
3E007E
FF00FF
FF80FF
7F81FE
3FC1FE
3FC3FC
1FE7F8
1FF7F8
0FFFF0
07FFF0
07FFE0
03FFE0
01FFC0
01FFC0
00FF80
00FF00
007F00
007F00
007F00
007F00
007F00
007F00
007F00
007F00
007F00
007F00
007F00
ENDCHAR
STARTCHAR 005A
ENCODING 90
SWIDTH 617 0
DWIDTH 24 0
BBX 22 28 1 0
BITMAP
3FFFFC
3FFFFC
3FFFFC
3FFFFC
3FFFFC
3FFFFC
3FFFF8
001FF0
001FF0
003FE0
007FC0
00FF80
01FF80
01FF00
03FE00
07FC00
0FFC00
1FF800
1FF000
3FE000
7FE000
FFFFF0
FFFFF0
FFFFF0
FFFFF0
FFFFF0
FFFFF0
FFFFF0
ENDCHAR
STARTCHAR 005B
ENCODING 91
SWIDTH 360 0
DWIDTH 14 0
BBX 10 35 2 -5
BITMAP
FFC0
FFC0
FFC0
FFC0
FFC0
FFC0
FFC0
FE00
FE00
FE00
FE00
FE00
FE00
FE00
FE00
FE00
FE00
FE00
FE00
FE00
FE00
FE00
FE00
FE00
FE00
FE00
FE00
FE00
FF80
FF80
FF80
FF80
FF80
FF80
FF80
ENDCHAR
STARTCHAR 005C
ENCODING 92
SWIDTH 437 0
DWIDTH 17 0
BBX 15 29 1 0
BITMAP
0800
7C00
FC00
7C00
7E00
7E00
3E00
3F00
1F00
1F80
1F80
0F80
0FC0
0FC0
07C0
07E0
07E0
03E0
03F0
01F0
01F8
01F8
00F8
00FC
00FC
007C
007E
007C
0020
ENDCHAR
STARTCHAR 005D
ENCODING 93
SWIDTH 360 0
DWIDTH 14 0
BBX 10 35 2 -5
BITMAP
FFC0
FFC0
FFC0
FFC0
FFC0
FFC0
FFC0
1FC0
1FC0
1FC0
1FC0
1FC0
1FC0
1FC0
1FC0
1FC0
1FC0
1FC0
1FC0
1FC0
1FC0
1FC0
1FC0
1FC0
1FC0
1FC0
1FC0
1FC0
FFC0
FFC0
FFC0
FFC0
FFC0
FFC0
FFC0
ENDCHAR
STARTCHAR 005E
ENCODING 94
SWIDTH 360 0
DWIDTH 14 0
BBX 11 10 2 19
BITMAP
0E00
1F00
1F00
3F80
3F80
7B80
7BC0
F3C0
71E0
0100
ENDCHAR
STARTCHAR 005F
ENCODING 95
SWIDTH 591 0
DWIDTH 23 0
BBX 20 5 1 0
BITMAP
FFFFF0
FFFFF0
FFFFF0
FFFFF0
FFFFF0
ENDCHAR
STARTCHAR 0060
ENCODING 96
SWIDTH 231 0
DWIDTH 9 0
BBX 6 5 2 24
BITMAP
E0
F0
78
38
1C
ENDCHAR
STARTCHAR 0061
ENCODING 97
SWIDTH 565 0
DWIDTH 22 0
BBX 19 21 1 1
BITMAP
01FFE0
07FFE0
0FFFE0
1FFFE0
3FFFE0
3FFFE0
7FFFE0
7F8FE0
7E0FE0
FE0FE0
FE0FE0
FE0FE0
7F0FE0
7FFFE0
7FFFE0
3FFFE0
3FFFE0
1FFFE0
0FFFE0
03FFE0
000FE0
ENDCHAR
STARTCHAR 0062
ENCODING 98
SWIDTH 565 0
DWIDTH 22 0
BBX 20 29 1 0
BITMAP
FE0000
FE0000
FE0000
FE0000
FE0000
FE0000
FE0000
FE0000
FFC000
FFF800
FFFE00
FFFF80
FFFFC0
FFFFC0
FFFFE0
FE7FE0
FE0FF0
FE07F0
FE07F0
FE0FF0
FE1FE0
FE7FE0
FFFFE0
FFFFC0
FFFF80
FFFF00
FFFE00
FFF800
FFE000
ENDCHAR
STARTCHAR 0063
ENCODING 99
SWIDTH 591 0
DWIDTH 23 0
BBX 20 25 1 0
BITMAP
007800
03FF00
0FFF80
1FFFC0
1FFFE0
3FFFE0
3FFFE0
7FCFE0
7F0000
7F0000
FF0000
FE0000
FE0000
FE0000
FE0000
FF0000
7F07F0
7F87F0
7FFFF0
3FFFE0
3FFFE0
1FFFC0
0FFF80
07FF00
01FC00
ENDCHAR
STARTCHAR 0064
ENCODING 100
SWIDTH 565 0
DWIDTH 22 0
BBX 19 31 2 -1
BITMAP
000FE0
000FE0
000FE0
000FE0
000FE0
000FE0
000FE0
007FE0
03FFE0
0FFFE0
1FFFE0
3FFFE0
7FFFE0
7FFFE0
FFFFE0
FF8FE0
FF0FE0
FE0FE0
FE0FE0
FE0FE0
FE0FE0
FF0FE0
FF8FE0
FFFFE0
7FFFE0
7FFFE0
3FFFE0
1FFFE0
0FFFE0
03FFE0
003FE0
ENDCHAR
STARTCHAR 0065
ENCODING 101
SWIDTH 540 0
DWIDTH 21 0
BBX 18 22 1 1
BITMAP
01F800
07FE00
0FFF00
1FFF80
3FFF80
3FFFC0
7F0FC0
7E07C0
7E07C0
FFFFC0
FFFFC0
FFFFC0
FFFFC0
7FFFC0
7E0000
7FBF80
7FFF80
3FFF80
1FFF80
1FFF00
07FE00
01F800
ENDCHAR
STARTCHAR 0066
ENCODING 102
SWIDTH 385 0
DWIDTH 15 0
BBX 14 30 1 3
BITMAP
01FC
07FC
0FF8
1FF8
1FF8
3FF8
3FF0
3FC0
3F80
7F80
7F00
FFF8
FFF8
FFF8
FFF8
FFF8
FFF8
FFF8
3F80
3F80
3F80
3F80
3F80
3F80
3F80
3F80
3F80
3F80
3F80
3F80
ENDCHAR
STARTCHAR 0067
ENCODING 103
SWIDTH 565 0
DWIDTH 22 0
BBX 19 29 1 -6
BITMAP
007FE0
03FFE0
0FFFE0
1FFFE0
3FFFE0
7FFFE0
7FFFE0
7F0FE0
FE0FE0
FE0FE0
FE0FE0
FF0FE0
FF8FE0
7FFFE0
7FFFE0
3FFFE0
3FFFE0
1FFFE0
07FFE0
01FFE0
7E0FE0
7F1FE0
7FFFC0
7FFFC0
3FFF80
3FFF80
1FFF00
0FFE00
03F800
ENDCHAR
STARTCHAR 0068
ENCODING 104
SWIDTH 565 0
DWIDTH 22 0
BBX 19 33 2 -2
BITMAP
FE0000
FE0000
FE0000
FE0000
FE0000
FE0000
FE0000
FE0000
FE0000
FE0000
FE0000
FFE000
FFFC00
FFFE00
FFFF00
FFFF80
FFFFC0
FFFFC0
FEFFC0
FE1FC0
FE1FE0
FE1FE0
FE0FE0
FE0FE0
FE0FE0
FE0FE0
FE0FE0
FE0FE0
FE0FE0
FE0FE0
FE0FE0
FE0FE0
FE0000
ENDCHAR
STARTCHAR 0069
ENCODING 105
SWIDTH 257 0
DWIDTH 10 0
BBX 7 28 2 1
BITMAP
38
FC
FC
FE
FC
FC
78
00
00
FE
FE
FE
FE
FE
FE
FE
FE
FE
FE
FE
FE
FE
FE
FE
FE
FE
FE
FE
ENDCHAR
STARTCHAR 006A
ENCODING 106
SWIDTH 282 0
DWIDTH 11 0
BBX 11 36 -2 -9
BITMAP
0780
0FC0
0FE0
0FE0
0FC0
07C0
0300
0000
0000
0FE0
0FE0
0FE0
0FE0
0FE0
0FE0
0FE0
0FE0
0FE0
0FE0
0FE0
0FE0
0FE0
0FE0
0FE0
0FE0
0FE0
0FE0
0FE0
1FE0
FFC0
FFC0
FFC0
FF80
FF00
FE00
F800
ENDCHAR
STARTCHAR 006B
ENCODING 107
SWIDTH 565 0
DWIDTH 22 0
BBX 18 32 2 -1
BITMAP
FE0000
FE0000
FE0000
FE0000
FE0000
FE0000
FE0000
FE0400
FE0E00
FE1F00
FE7F00
FEFF80
FFFFC0
FFFF80
FFFF00
FFFE00
FFFC00
FFF000
FFE000
FFE000
FFF000
FFF800
FFFC00
FFFE00
FFFF00
FFFF80
FEFFC0
FE7FC0
FE3F80
FE3F00
001E00
000C00
ENDCHAR
STARTCHAR 006C
ENCODING 108
SWIDTH 334 0
DWIDTH 13 0
BBX 9 30 2 -2
BITMAP
FE00
FE00
FE00
FE00
FE00
FE00
FE00
FE00
FE00
FE00
FE00
FE00
FE00
FE00
FE00
FE00
FE00
FE00
FE00
FE00
FE00
FE00
FF00
FF80
FF80
FF80
7F80
3F80
1F80
0780
ENDCHAR
STARTCHAR 006D
ENCODING 109
SWIDTH 848 0
DWIDTH 33 0
BBX 30 21 1 2
BITMAP
01F83F80
FFFEFFE0
FFFFFFF0
FFFFFFF8
FFFFFFF8
FFFFFFFC
FFFFFFFC
FF1FF1FC
FF0FE1FC
FE0FE1FC
FE0FE1FC
FE0FE1FC
FE0FE1FC
FE0FE1FC
FE0FE1FC
FE0FE1FC
FE0FE1FC
FE0FE1FC
FE0FE1FC
FE0FE1FC
FE0FE1FC
ENDCHAR
STARTCHAR 006E
ENCODING 110
SWIDTH 565 0
DWIDTH 22 0
BBX 19 22 2 2
BITMAP
01F800
FFFE00
FFFF00
FFFF80
FFFFC0
FFFFC0
FE1FE0
FE0FE0
FE0FE0
FE0FE0
FE0FE0
FE0FE0
FE0FE0
FE0FE0
FE0FE0
FE0FE0
FE0FE0
FE0FE0
FE0FE0
FE0FE0
FE0FE0
FE0FE0
ENDCHAR
STARTCHAR 006F
ENCODING 111
SWIDTH 642 0
DWIDTH 25 0
BBX 21 22 2 1
BITMAP
01F800
07FF00
0FFF80
1FFFC0
3FFFE0
7FFFF0
FFFFF0
FF8FF8
FE07F8
FE03F8
FE03F8
FE03F8
FE03F8
FE07F8
FF8FF8
FFFFF0
7FFFF0
3FFFE0
1FFFC0
0FFF80
07FF00
01FC00
ENDCHAR
STARTCHAR 0070
ENCODING 112
SWIDTH 591 0
DWIDTH 23 0
BBX 20 30 1 -5
BITMAP
FFE000
FFFC00
FFFF00
FFFF80
FFFFC0
FFFFC0
FFFFE0
FFFFE0
FE0FE0
FE07F0
FE07F0
FE07F0
FE07F0
FE0FF0
FE0FF0
FE3FE0
FFFFE0
FFFFC0
FFFFC0
FFFF80
FFFF00
FFFE00
FFF800
FE0000
FE0000
FE0000
FE0000
FE0000
FE0000
FE0000
ENDCHAR
STARTCHAR 0071
ENCODING 113
SWIDTH 591 0
DWIDTH 23 0
BBX 20 30 1 -6
BITMAP
003FF0
01FFF0
03FFF0
0FFFF0
1FFFF0
1FFFF0
3FFFF0
7FC7F0
7F87F0
7F07F0
7F07F0
FF07F0
FF07F0
7F87F0
7FC7F0
7FFFF0
3FFFF0
3FFFF0
1FFFF0
0FFFF0
03FFF0
003FF0
0007F0
0007F0
0007F0
0007F0
0007F0
0007F0
0007F0
0007F0
ENDCHAR
STARTCHAR 0072
ENCODING 114
SWIDTH 514 0
DWIDTH 20 0
BBX 16 21 2 2
BITMAP
FFFC
FFFE
FFFF
FFFF
FFFE
FFFE
FFFC
FF18
FE00
FE00
FE00
FE00
FE00
FE00
FE00
FE00
FE00
FE00
FE00
FE00
FE00
ENDCHAR
STARTCHAR 0073
ENCODING 115
SWIDTH 488 0
DWIDTH 19 0
BBX 17 25 1 -1
BITMAP
03E000
0FFE00
1FFF00
3FFE00
7FFE00
7FFC00
7FFC00
FF1800
FF8800
FFE000
7FF800
7FFC00
3FFE00
1FFF00
07FF00
01FF00
007F80
0C3F80
3E7F80
7FFF00
FFFF00
7FFE00
3FFE00
1FFC00
07F000
ENDCHAR
STARTCHAR 0074
ENCODING 116
SWIDTH 411 0
DWIDTH 16 0
BBX 14 26 1 -3
BITMAP
3F80
3F80
3F80
3F80
FFF8
FFF8
FFF8
FFF8
FFF8
FFF8
FFF8
3F80
3F80
3F80
3F80
3F80
3F80
3F80
3FC0
3FF8
1FF8
1FF8
1FF8
0FFC
07FC
01FC
ENDCHAR
STARTCHAR 0075
ENCODING 117
SWIDTH 540 0
DWIDTH 21 0
BBX 17 21 2 -4
BITMAP
FE0000
FE3F80
FE3F80
FE3F80
FE3F80
FE3F80
FE3F80
FE3F80
FE3F80
FE3F80
FE3F80
FE3F80
FE3F80
FF7F80
FFFF80
FFFF00
7FFF00
7FFE00
3FFC00
1FF800
07E000
ENDCHAR
STARTCHAR 0076
ENCODING 118
SWIDTH 540 0
DWIDTH 21 0
BBX 19 23 1 1
BITMAP
020C00
1E0F80
FE1FE0
FF1FC0
7F1FC0
7F3FC0
7FBF80
3FBF80
3FFF80
3FFF00
1FFF00
1FFF00
1FFE00
0FFE00
0FFE00
0FFC00
07FC00
07FC00
07F800
03F800
03F800
03F000
01F000
ENDCHAR
STARTCHAR 0077
ENCODING 119
SWIDTH 771 0
DWIDTH 30 0
BBX 28 23 1 0
BITMAP
1E000000
FE000600
FF0007E0
FF000FF0
7F078FE0
7F0F8FE0
7F8F8FE0
7F9FDFE0
3F9FDFC0
3FDFDFC0
3FFFFFC0
1FFFFFC0
1FFFFF80
1FFFFF80
1FFFFF80
0FFFFF80
0FFDFF00
0FF9FF00
0FF9FF00
07F0FE00
07F0FE00
07F07E00
00007E00
ENDCHAR
STARTCHAR 0078
ENCODING 120
SWIDTH 565 0
DWIDTH 22 0
BBX 19 25 1 0
BITMAP
040000
1E0600
3E0F00
FF0FC0
7F9FE0
7FBFE0
3FFFC0
3FFFC0
1FFF80
0FFF00
0FFF00
07FE00
07FC00
07FC00
07FE00
0FFE00
0FFF00
1FFF80
3FFF80
3FFFC0
7FBFC0
7F9FE0
3F1F80
0E0E00
020C00
ENDCHAR
STARTCHAR 0079
ENCODING 121
SWIDTH 565 0
DWIDTH 22 0
BBX 21 27 1 -10
BITMAP
7F07F8
7F07F0
7F07F0
7F07F0
7F0FE0
7F0FE0
7F0FE0
7F0FE0
7F1FC0
7F1FC0
7FFFC0
7FFFC0
7FFF80
3FFF80
1FFF80
0FFF80
03FF00
007F00
00FF00
11FF00
3FFE00
3FFE00
7FFC00
FFFC00
FFF800
FFF000
3FC000
ENDCHAR
STARTCHAR 007A
ENCODING 122
SWIDTH 540 0
DWIDTH 21 0
BBX 18 22 1 1
BITMAP
3FFF80
7FFFC0
7FFFC0
7FFFC0
7FFFC0
7FFFC0
7FFFC0
00FF80
01FF00
03FE00
07FE00
0FFC00
1FF800
3FF000
7FE000
FFFF80
FFFF80
FFFF80
FFFF80
FFFF80
FFFF80
FFFF80
ENDCHAR
STARTCHAR 007B
ENCODING 123
SWIDTH 437 0
DWIDTH 17 0
BBX 13 36 2 -6
BITMAP
00F8
07F8
0FF8
0FF8
1FF8
1FF8
1FC0
1FC0
1FC0
1FC0
1FC0
1FC0
1FC0
3FC0
FF80
FF80
FF80
FF00
FF00
FF80
FF80
7FC0
3FC0
1FC0
1FC0
1FC0
1FC0
1FC0
1FC0
1FC0
1FF8
0FF8
0FF8
07F8
03F8
00F8
ENDCHAR
STARTCHAR 007C
ENCODING 124
SWIDTH 257 0
DWIDTH 10 0
BBX 7 30 2 -1
BITMAP
FE
FE
FE
FE
FE
FE
FE
FE
FE
FE
FE
FE
FE
FE
FE
FE
FE
FE
FE
FE
FE
FE
FE
FE
FE
FE
FE
FE
FE
FE
ENDCHAR
STARTCHAR 007D
ENCODING 125
SWIDTH 437 0
DWIDTH 17 0
BBX 13 36 2 -6
BITMAP
F800
FE00
FF00
FF80
FF80
FF80
3F80
1F80
1F80
1F80
1FC0
1FC0
1FC0
1FE0
1FF8
0FF8
0FF8
0FF8
0FF8
0FF8
1FF8
1FF0
1FC0
1FC0
1FC0
1F80
1F80
1F80
1F80
3F80
FF80
FF80
FF80
FF00
FE00
F000
ENDCHAR
STARTCHAR 007E
ENCODING 126
SWIDTH 745 0
DWIDTH 29 0
BBX 25 12 2 5
BITMAP
03F80000
07FC1800
0FFE3E00
1FFF7F80
3FFFFF80
7FFFFF00
FFFFFF00
FF3FFE00
7E1FFC00
1E0FF800
0407F000
0000C000
ENDCHAR
STARTCHAR 00A1
ENCODING 161
SWIDTH 308 0
DWIDTH 12 0
BBX 7 29 2 -2
BITMAP
38
7E
FE
FE
FE
7E
3C
00
00
FE
FE
FE
FE
FE
FE
FE
FE
FE
FE
FE
FE
FE
FE
FE
FE
FE
FE
FE
FE
ENDCHAR
STARTCHAR 00A2
ENCODING 162
SWIDTH 591 0
DWIDTH 23 0
BBX 20 28 1 0
BITMAP
00FC00
00FC00
00FC00
00FC00
07FF00
0FFFC0
1FFFC0
3FFFE0
3FFFE0
7FCF80
7F0000
7F0000
FF0000
FE0000
FE0000
FE0000
FE0000
7F0000
7F07F0
7F8FF0
3FFFF0
3FFFE0
1FFFC0
0FFF80
07FF00
01FC00
00FC00
00FC00
ENDCHAR
STARTCHAR 00A3
ENCODING 163
SWIDTH 514 0
DWIDTH 20 0
BBX 18 27 1 3
BITMAP
00FE00
01FE00
03FC00
07FC00
07FC00
07FC00
0FF800
0FF000
0FE000
0FE000
0FE000
0FE000
3FFF00
3FFF00
3FFF00
3FFF00
0FE000
0FE000
0FE000
0FE000
FFFFC0
FFFFC0
FFFFC0
FFFFC0
FFFFC0
FFFFC0
FFFFC0
ENDCHAR
STARTCHAR 00A5
ENCODING 165
SWIDTH 668 0
DWIDTH 26 0
BBX 24 29 1 0
BITMAP
040020
1E0078
3F007E
FF00FF
FF80FF
7F81FE
3FC3FC
3FE3FC
1FE7F8
0FF7F8
0FFFF0
07FFF0
03FFE0
03FFC0
01FFC0
0FFFF8
0FFFF8
0FFFF8
0FFFF8
0FFFF8
007F00
007F00
0FFFF8
0FFFF8
0FFFF8
0FFFF8
0FFFF8
007F00
007F00
ENDCHAR
STARTCHAR 00A8
ENCODING 168
SWIDTH 205 0
DWIDTH 8 0
BBX 6 2 1 26
BITMAP
FC
58
ENDCHAR
STARTCHAR 00AB
ENCODING 171
SWIDTH 900 0
DWIDTH 35 0
BBX 32 21 2 1
BITMAP
000C0000
003C0038
00FE00F8
03FE03FC
0FFF07FE
1FFF1FFE
7FFF7FFF
FFFDFFFC
FFF1FFF0
FFC1FFC0
FFC1FF00
FFF1FFC0
FFF9FFE0
3FFEFFF8
1FFF3FFC
07FF1FFE
03FE07FC
00FC03FC
007C00F8
00180070
00000010
ENDCHAR
STARTCHAR 00B1
ENCODING 177
SWIDTH 488 0
DWIDTH 19 0
BBX 16 19 2 0
BITMAP
07C0
07C0
07C0
07C0
07C0
FFFF
FFFF
FFFF
FFFF
FFFF
07C0
07C0
07C0
07C0
07C0
0000
FFFF
FFFF
FFFF
ENDCHAR
STARTCHAR 00B4
ENCODING 180
SWIDTH 231 0
DWIDTH 9 0
BBX 6 5 1 24
BITMAP
3C
38
70
70
E0
ENDCHAR
STARTCHAR 00B8
ENCODING 184
SWIDTH 282 0
DWIDTH 11 0
BBX 8 11 2 0
BITMAP
E0
E0
F8
FC
FE
1F
0F
FF
FE
FC
F0
ENDCHAR
STARTCHAR 00BB
ENCODING 187
SWIDTH 925 0
DWIDTH 36 0
BBX 32 21 2 2
BITMAP
00003000
38007C00
3E007F00
7F80FFC0
7FE0FFF0
FFF1FFFC
FFFC7FFF
7FFF3FFF
1FFF0FFF
07FF03FF
01FF07FF
07FF0FFF
0FFF3FFE
3FFE7FF8
7FFCFFF0
FFF0FFC0
7FE07F80
7F803E00
3F003C00
1C001000
10000000
ENDCHAR
STARTCHAR 00BF
ENCODING 191
SWIDTH 514 0
DWIDTH 20 0
BBX 18 29 1 0
BITMAP
000E00
003F80
003F80
003F80
003F80
003F80
001F00
000000
000000
003F80
003F80
007F80
03FF80
07FF80
1FFF80
3FFF80
3FFF80
7FFE00
7F8000
FF0000
FF0000
FF8000
7FFF80
7FFF80
3FFF80
1FFF80
0FFF80
07FF80
00FFC0
ENDCHAR
STARTCHAR 00C0
ENCODING 192
SWIDTH 617 0
DWIDTH 24 0
BBX 22 37 1 0
BITMAP
00F000
007000
007800
003800
001C00
000000
000000
01FF80
01FF80
03FF80
03FF80
03FFC0
03FFC0
07FFC0
07FFC0
07FFC0
0FFFE0
0FEFE0
0FEFE0
0FEFE0
1FEFE0
1FCFF0
1FC7F0
1FC7F0
3FC7F0
3FFFF8
3FFFF8
7FFFF8
7FFFF8
7FFFF8
7FFFFC
FFFFFC
FE01FC
FE01FC
FE01FC
FC00C0
0C0000
ENDCHAR
STARTCHAR 00C1
ENCODING 193
SWIDTH 617 0
DWIDTH 24 0
BBX 22 37 1 0
BITMAP
000F00
001E00
001C00
003800
003000
000000
000000
01FF80
01FF80
03FF80
03FF80
03FFC0
03FFC0
07FFC0
07FFC0
07FFC0
0FFFE0
0FEFE0
0FEFE0
0FEFE0
1FEFE0
1FCFF0
1FC7F0
1FC7F0
3FC7F0
3FFFF8
3FFFF8
7FFFF8
7FFFF8
7FFFF8
7FFFFC
FFFFFC
FE01FC
FE01FC
FE01FC
FC00C0
0C0000
ENDCHAR
STARTCHAR 00C2
ENCODING 194
SWIDTH 617 0
DWIDTH 24 0
BBX 22 38 1 0
BITMAP
000C00
001E00
003E00
003E00
007700
003600
000000
000000
01FF80
01FF80
03FF80
03FF80
03FFC0
03FFC0
07FFC0
07FFC0
07FFC0
07FFE0
0FEFE0
0FEFE0
0FEFE0
1FEFE0
1FCFF0
1FC7F0
1FC7F0
3FC7F0
3FFFF0
3FFFF8
7FFFF8
7FFFF8
7FFFF8
7FFFFC
FFFFFC
FE01FC
FE01FC
FE01FC
FC00C0
0C0000
ENDCHAR
STARTCHAR 00C3
ENCODING 195
SWIDTH 617 0
DWIDTH 24 0
BBX 22 37 1 2
BITMAP
007000
00FB00
00FF80
01DF00
000600
000000
000000
01FF80
01FF80
03FF80
03FF80
03FFC0
03FFC0
07FFC0
07FFC0
07FFC0
0FFFE0
0FEFE0
0FEFE0
0FEFE0
1FEFE0
1FCFF0
1FC7F0
1FC7F0
3FC7F0
3FFFF8
3FFFF8
7FFFF8
7FFFF8
7FFFF8
7FFFFC
FFFFFC
FE01FC
FE01FC
FE01FC
FC00C0
0C0000
ENDCHAR
STARTCHAR 00C4
ENCODING 196
SWIDTH 617 0
DWIDTH 24 0
BBX 22 34 1 0
BITMAP
006C00
006C00
000000
000000
01FF80
01FF80
03FF80
03FF80
03FF80
03FFC0
07FFC0
07FFC0
07FFC0
07FFE0
0FEFE0
0FEFE0
0FEFE0
1FEFE0
1FCFF0
1FC7F0
1FC7F0
3FC7F0
3FFFF0
3FFFF8
7FFFF8
7FFFF8
7FFFF8
7FFFFC
FFFFFC
FE01FC
FE01FC
FE01FC
FC00C0
0C0000
ENDCHAR
STARTCHAR 00C5
ENCODING 197
SWIDTH 617 0
DWIDTH 24 0
BBX 22 38 1 0
BITMAP
003800
007C00
006600
006600
006600
007C00
003800
000000
000000
01FF80
01FF80
03FF80
03FF80
03FFC0
07FFC0
07FFC0
07FFC0
07FFE0
0FEFE0
0FEFE0
0FEFE0
1FEFE0
1FCFF0
1FC7F0
1FC7F0
3FC7F0
3FFFF0
3FFFF8
7FFFF8
7FFFF8
7FFFF8
7FFFFC
FFFFFC
FE01FC
FE01FC
FE01FC
FC00C0
0C0000
ENDCHAR
STARTCHAR 00C6
ENCODING 198
SWIDTH 771 0
DWIDTH 30 0
BBX 29 29 0 0
BITMAP
01FFFFF8
01FFFFF8
01FFFFF8
03FFFFF8
03FFFFF8
03FFFFF8
03FFFFF8
07FFE000
07FFE000
07FFE000
07FFE000
0FFFE000
0FEFFF80
0FEFFF80
0FEFFF80
1FEFFF80
1FCFFF80
1FFFFF80
1FFFFF80
3FFFE000
3FFFE000
3FFFE000
7FFFFFF0
7FFFFFF0
7F0FFFF0
7F0FFFF0
FF0FFFF0
7E0FFFF0
060FFFF0
ENDCHAR
STARTCHAR 00C7
ENCODING 199
SWIDTH 642 0
DWIDTH 25 0
BBX 23 37 1 -7
BITMAP
003E00
01FFC0
07FFE0
0FFFF8
1FFFF8
1FFFFC
3FFFFE
3FE3F0
7F80C0
7F0000
7F0000
FF0000
FE0000
FE0000
FE0000
FE0000
FE0000
FF0000
7F00FE
7F00FE
7F81FE
7FC3FC
3FFFFC
3FFFFC
1FFFF8
0FFFF0
07FFE0
03FFC0
00FF00
003800
003C00
003E00
000700
000700
003F00
003E00
002000
ENDCHAR
STARTCHAR 00C8
ENCODING 200
SWIDTH 488 0
DWIDTH 19 0
BBX 17 36 1 0
BITMAP
03C000
01C000
01E000
00E000
007000
000000
000000
FFFF80
FFFF80
FFFF80
FFFF80
FFFF80
FFFF80
FFFF80
FF0000
FF0000
FF0000
FF0000
FF0000
FFF800
FFF800
FFF800
FFF800
FFF800
FFF800
FFF800
FF0000
FF0000
FF0000
FFFF80
FFFF80
FFFF80
FFFF80
FFFF80
FFFF80
FFFF80
ENDCHAR
STARTCHAR 00C9
ENCODING 201
SWIDTH 488 0
DWIDTH 19 0
BBX 17 36 1 0
BITMAP
00F000
01E000
01C000
038000
030000
000000
000000
FFFF80
FFFF80
FFFF80
FFFF80
FFFF80
FFFF80
FFFF80
FF0000
FF0000
FF0000
FF0000
FF0000
FFF800
FFF800
FFF800
FFF800
FFF800
FFF800
FFF800
FF0000
FF0000
FF0000
FFFF80
FFFF80
FFFF80
FFFF80
FFFF80
FFFF80
FFFF80
ENDCHAR
STARTCHAR 00CA
ENCODING 202
SWIDTH 488 0
DWIDTH 19 0
BBX 17 37 1 0
BITMAP
00E000
01E000
01F000
03F000
033800
010000
000000
000000
FFFF80
FFFF80
FFFF80
FFFF80
FFFF80
FFFF80
FFFF80
FF0000
FF0000
FF0000
FF0000
FF0000
FFF800
FFF800
FFF800
FFF800
FFF800
FFF800
FFF800
FF0000
FF0000
FF0000
FFFF80
FFFF80
FFFF80
FFFF80
FFFF80
FFFF80
FFFF80
ENDCHAR
STARTCHAR 00CB
ENCODING 203
SWIDTH 488 0
DWIDTH 19 0
BBX 17 33 1 0
BITMAP
036000
036000
000000
000000
FFFF80
FFFF80
FFFF80
FFFF80
FFFF80
FFFF80
FFFF80
FF0000
FF0000
FF0000
FF0000
FF0000
FFF800
FFF800
FFF800
FFF800
FFF800
FFF800
FFF800
FF0000
FF0000
FF0000
FFFF80
FFFF80
FFFF80
FFFF80
FFFF80
FFFF80
FFFF80
ENDCHAR
STARTCHAR 00CC
ENCODING 204
SWIDTH 257 0
DWIDTH 10 0
BBX 7 35 2 0
BITMAP
F0
70
38
38
1C
00
00
00
FE
FE
FE
FE
FE
FE
FE
FE
FE
FE
FE
FE
FE
FE
FE
FE
FE
FE
FE
FE
FE
FE
FE
FE
FE
FE
FE
ENDCHAR
STARTCHAR 00CD
ENCODING 205
SWIDTH 257 0
DWIDTH 10 0
BBX 7 34 2 0
BITMAP
0E
1E
3C
38
70
00
00
FE
FE
FE
FE
FE
FE
FE
FE
FE
FE
FE
FE
FE
FE
FE
FE
FE
FE
FE
FE
FE
FE
FE
FE
FE
FE
FE
ENDCHAR
STARTCHAR 00CE
ENCODING 206
SWIDTH 257 0
DWIDTH 10 0
BBX 7 35 2 0
BITMAP
38
3C
7C
EE
EE
00
00
00
FE
FE
FE
FE
FE
FE
FE
FE
FE
FE
FE
FE
FE
FE
FE
FE
FE
FE
FE
FE
FE
FE
FE
FE
FE
FE
FE
ENDCHAR
STARTCHAR 00CF
ENCODING 207
SWIDTH 257 0
DWIDTH 10 0
BBX 7 31 2 0
BITMAP
6C
6C
00
00
FE
FE
FE
FE
FE
FE
FE
FE
FE
FE
FE
FE
FE
FE
FE
FE
FE
FE
FE
FE
FE
FE
FE
FE
FE
FE
FE
ENDCHAR
STARTCHAR 00D0
ENCODING 208
SWIDTH 617 0
DWIDTH 24 0
BBX 20 28 2 1
BITMAP
FF8000
FFF000
FFFC00
FFFE00
FFFF00
FFFF80
FFFFC0
FFFFE0
FE7FE0
FE1FF0
FE0FF0
FE07F0
FFE7F0
FFE7F0
FFE7F0
FFE7F0
FE0FF0
FE0FF0
FE1FE0
FE3FE0
FFFFC0
FFFFC0
FFFF80
FFFF00
FFFE00
FFF800
FFF000
FFC000
ENDCHAR
STARTCHAR 00D1
ENCODING 209
SWIDTH 642 0
DWIDTH 25 0
BBX 23 33 1 3
BITMAP
004000
01F400
01FF00
03BE00
001C00
000000
000000
FF00FE
FF00FE
FF80FE
FF80FE
FFC0FE
FFE0FE
FFE0FE
FFF0FE
FFF0FE
FFF8FE
FFFCFE
FFFCFE
FFFEFE
FFFFFE
FFFFFE
FEFFFE
FE7FFE
FE3FFE
FE3FFE
FE1FFE
FE0FFE
FE0FFE
FE07FE
FE03FE
FE01FE
0001FE
ENDCHAR
STARTCHAR 00D2
ENCODING 210
SWIDTH 745 0
DWIDTH 29 0
BBX 27 36 1 0
BITMAP
001E0000
000E0000
000F0000
00070000
00038000
00000000
00000000
003F8000
00FFE000
03FFF800
07FFFC00
0FFFFE00
1FFFFF00
3FFFFF80
3FE0FF80
7FC07FC0
7F803FC0
7F001FC0
7F001FE0
FE000FE0
FE000FE0
FE000FE0
FE000FE0
FE000FE0
FF001FE0
7F001FC0
7F803FC0
7FC07FC0
3FE0FF80
3FFFFF80
1FFFFF00
0FFFFE00
07FFFC00
03FFF800
00FFE000
003F8000
ENDCHAR
STARTCHAR 00D3
ENCODING 211
SWIDTH 745 0
DWIDTH 29 0
BBX 27 36 1 0
BITMAP
0003C000
00038000
00078000
00070000
000E0000
00000000
00000000
003F8000
00FFE000
03FFF800
07FFFC00
0FFFFE00
1FFFFF00
3FFFFF80
3FE0FF80
7FC07FC0
7F803FC0
7F001FC0
7F001FE0
FE000FE0
FE000FE0
FE000FE0
FE000FE0
FE000FE0
FF001FE0
7F001FC0
7F803FC0
7FC07FC0
3FE0FF80
3FFFFF80
1FFFFF00
0FFFFE00
07FFFC00
03FFF800
00FFE000
003F8000
ENDCHAR
STARTCHAR 00D4
ENCODING 212
SWIDTH 745 0
DWIDTH 29 0
BBX 27 36 1 0
BITMAP
00070000
000F0000
001F8000
001F8000
0019C000
00000000
00000000
003F8000
00FFE000
03FFF800
07FFFC00
0FFFFE00
1FFFFF00
3FFFFF80
3FE0FF80
7FC07FC0
7F803FC0
7F001FC0
7F001FE0
FE000FE0
FE000FE0
FE000FE0
FE000FE0
FE000FE0
FF001FE0
7F001FC0
7F803FC0
7FC07FC0
3FE0FF80
3FFFFF80
1FFFFF00
0FFFFE00
07FFFC00
03FFF800
00FFE000
003F8000
ENDCHAR
STARTCHAR 00D5
ENCODING 213
SWIDTH 745 0
DWIDTH 29 0
BBX 27 36 1 2
BITMAP
00080000
003C8000
007FE000
0077C000
00238000
00000000
00000000
003F8000
00FFE000
03FFF800
07FFFC00
0FFFFE00
1FFFFF00
3FFFFF80
3FE0FF80
7FC07FC0
7F803FC0
7F001FC0
7F001FE0
FE000FE0
FE000FE0
FE000FE0
FE000FE0
FE000FE0
FF001FE0
7F001FC0
7F803FC0
7FC07FC0
3FE0FF80
3FFFFF80
1FFFFF00
0FFFFE00
07FFFC00
03FFF800
00FFE000
003F8000
ENDCHAR
STARTCHAR 00D6
ENCODING 214
SWIDTH 745 0
DWIDTH 29 0
BBX 27 33 1 0
BITMAP
001B0000
001B0000
00000000
00000000
003F8000
00FFE000
03FFF800
07FFFC00
0FFFFE00
1FFFFF00
3FFFFF80
3FE0FF80
7FC07FC0
7F803FC0
7F001FC0
7F001FE0
FE000FE0
FE000FE0
FE000FE0
FE000FE0
FE000FE0
FF001FE0
7F001FC0
7F803FC0
7FC07FC0
3FE0FF80
3FFFFF80
1FFFFF00
0FFFFE00
07FFFC00
03FFF800
00FFE000
003F8000
ENDCHAR
STARTCHAR 00D7
ENCODING 215
SWIDTH 462 0
DWIDTH 18 0
BBX 14 15 2 4
BITMAP
1020
3870
7CF8
FFFC
FFFC
7FF8
3FF0
1FE0
3FF0
7FF8
FFFC
FFF8
7CF0
3860
1020
ENDCHAR
STARTCHAR 00D8
ENCODING 216
SWIDTH 745 0
DWIDTH 29 0
BBX 27 29 1 0
BITMAP
003F8000
00FFE000
03FFF800
07FFFC00
0FFFFE00
1FFFFF00
3FFFFF80
3FE3FF80
7FC7FFC0
7F87FFC0
7F07DFC0
7F0FDFE0
FE0FCFE0
FE0F8FE0
FE1F8FE0
FE1F0FE0
FE1F0FE0
FF3F1FE0
7F3E1FC0
7FFE3FC0
7FFE7FC0
3FFCFF80
3FFFFF80
1FFFFF00
0FFFFE00
07FFFC00
03FFF800
00FFE000
003F8000
ENDCHAR
STARTCHAR 00D9
ENCODING 217
SWIDTH 642 0
DWIDTH 25 0
BBX 23 36 1 0
BITMAP
01E000
00F000
007000
003800
001C00
000000
000000
4000FC
7E01FC
7F01FC
7F01FC
7F01FC
7F01FC
FE01FC
FE01FE
FE00FE
FE00FE
FE00FE
FE00FE
FE00FE
FE00FE
FE01FC
FE01FC
7E01FC
7E01FC
7F01FC
7F03FC
7F03F8
3F87F8
3FFFF8
3FFFF0
1FFFF0
0FFFE0
0FFFC0
03FF80
00FC00
ENDCHAR
STARTCHAR 00DA
ENCODING 218
SWIDTH 642 0
DWIDTH 25 0
BBX 23 36 1 0
BITMAP
001E00
001C00
003C00
003800
007000
000000
000000
4000FC
7F01FC
7F01FC
7F01FC
7F01FC
7F01FC
FE01FC
FE01FE
FE00FE
FE00FE
FE00FE
FE00FE
FE00FE
FE00FE
FE01FC
FE01FC
7E01FC
7E01FC
7F01FC
7F03FC
7F03F8
3F87F8
3FFFF8
3FFFF0
1FFFF0
0FFFE0
0FFFC0
03FF80
00FC00
ENDCHAR
STARTCHAR 00DB
ENCODING 219
SWIDTH 642 0
DWIDTH 25 0
BBX 23 36 1 0
BITMAP
003C00
003C00
007C00
007E00
00EE00
000000
000000
00007C
7C01FC
7F01FC
7F01FC
7F01FC
7F01FC
FE01FC
FE01FC
FE00FE
FE00FE
FE00FE
FE00FE
FE00FE
FE00FE
FE01FC
FE01FC
7E01FC
7E01FC
7F01FC
7F03FC
7F03F8
3F87F8
3FFFF8
3FFFF0
1FFFF0
0FFFE0
0FFFC0
03FF80
00FC00
ENDCHAR
STARTCHAR 00DC
ENCODING 220
SWIDTH 642 0
DWIDTH 25 0
BBX 23 33 1 0
BITMAP
006C00
006C00
000000
000000
00007C
7C01FC
7F01FC
7F01FC
7F01FC
7F01FC
FE01FC
FE01FC
FE00FE
FE00FE
FE00FE
FE00FE
FE00FE
FE00FE
FE01FC
FE01FC
7E01FC
7E01FC
7F01FC
7F03FC
7F03F8
3F87F8
3FFFF8
3FFFF0
1FFFF0
0FFFE0
0FFFC0
03FF80
00FC00
ENDCHAR
STARTCHAR 00DD
ENCODING 221
SWIDTH 668 0
DWIDTH 26 0
BBX 24 35 1 0
BITMAP
000F00
000F00
001E00
001C00
003800
000000
040020
0E0078
3E007E
FF00FF
FF80FF
7F81FE
3FC1FE
3FC3FC
1FE7F8
1FF7F8
0FFFF0
07FFF0
07FFE0
03FFE0
01FFC0
01FFC0
00FF80
00FF00
007F00
007F00
007F00
007F00
007F00
007F00
007F00
007F00
007F00
007F00
007F00
ENDCHAR
STARTCHAR 00DF
ENCODING 223
SWIDTH 540 0
DWIDTH 21 0
BBX 18 31 2 -2
BITMAP
07E000
1FF800
3FFC00
7FFE00
7FFF00
FFFF00
FFFF80
FE3F80
FE3F80
FE3F80
FE3F80
FE3F80
FEFF00
FEFF00
FEFF00
FEFF80
FEFF80
FE3F80
FE3FC0
FE3FC0
FE3F80
FE7F80
FEFF80
FEFF00
FEFF00
FEFE00
FEFC00
FEF000
FEC000
FE0000
FE0000
ENDCHAR
STARTCHAR 00E0
ENCODING 224
SWIDTH 565 0
DWIDTH 22 0
BBX 19 29 1 0
BITMAP
00F000
007800
003800
001C00
000C00
000000
000000
000000
01FFE0
07FFE0
0FFFE0
1FFFE0
3FFFE0
3FFFE0
7FFFE0
7F8FE0
7E0FE0
FE0FE0
FE0FE0
FE0FE0
7F0FE0
7FFFE0
7FFFE0
3FFFE0
3FFFE0
1FFFE0
0FFFE0
03FFE0
000FE0
ENDCHAR
STARTCHAR 00E1
ENCODING 225
SWIDTH 565 0
DWIDTH 22 0
BBX 19 29 1 0
BITMAP
000780
000F00
000E00
001C00
001800
000000
000000
000000
01FFE0
07FFE0
0FFFE0
1FFFE0
3FFFE0
3FFFE0
7FFFE0
7F8FE0
7E0FE0
FE0FE0
FE0FE0
FE0FE0
7F0FE0
7FFFE0
7FFFE0
3FFFE0
3FFFE0
1FFFE0
0FFFE0
03FFE0
000FE0
ENDCHAR
STARTCHAR 00E2
ENCODING 226
SWIDTH 565 0
DWIDTH 22 0
BBX 19 29 1 0
BITMAP
000E00
001E00
003E00
003F00
007700
001200
000000
000000
01FFE0
07FFE0
0FFFE0
1FFFE0
3FFFE0
3FFFE0
7FFFE0
7F8FE0
7E0FE0
FE0FE0
FE0FE0
FE0FE0
7F0FE0
7FFFE0
7FFFE0
3FFFE0
3FFFE0
1FFFE0
0FFFE0
03FFE0
000FE0
ENDCHAR
STARTCHAR 00E3
ENCODING 227
SWIDTH 565 0
DWIDTH 22 0
BBX 19 29 1 2
BITMAP
002000
007800
00FF80
01DF00
004E00
000000
000000
000000
01FFE0
07FFE0
0FFFE0
1FFFE0
3FFFE0
3FFFE0
7FFFE0
7F8FE0
7E0FE0
FE0FE0
FE0FE0
FE0FE0
7F0FE0
7FFFE0
7FFFE0
3FFFE0
3FFFE0
1FFFE0
0FFFE0
03FFE0
000FE0
ENDCHAR
STARTCHAR 00E4
ENCODING 228
SWIDTH 565 0
DWIDTH 22 0
BBX 19 26 1 0
BITMAP
003600
003600
000000
000000
000000
01FFE0
07FFE0
0FFFE0
1FFFE0
3FFFE0
3FFFE0
7FFFE0
7F8FE0
7E0FE0
FE0FE0
FE0FE0
FE0FE0
7F0FE0
7FFFE0
7FFFE0
3FFFE0
3FFFE0
1FFFE0
0FFFE0
03FFE0
000FE0
ENDCHAR
STARTCHAR 00E5
ENCODING 229
SWIDTH 565 0
DWIDTH 22 0
BBX 19 29 1 0
BITMAP
000E00
001F00
001980
001980
001F00
000E00
000000
000000
01FFE0
07FFE0
0FFFE0
1FFFE0
3FFFE0
3FFFE0
7FFFE0
7F8FE0
7E0FE0
FE0FE0
FE0FE0
FE0FE0
7F0FE0
7FFFE0
7FFFE0
3FFFE0
3FFFE0
1FFFE0
0FFFE0
03FFE0
000FE0
ENDCHAR
STARTCHAR 00E6
ENCODING 230
SWIDTH 848 0
DWIDTH 33 0
BBX 31 22 1 -1
BITMAP
00000F00
01FFFFE0
07FFFFF0
1FFFFFF8
3FFFFFF8
3FFFFFFC
7FFFF8FC
7FFFF07C
7F9FE07E
FE1FFFFE
FE1FFFFE
FE1FFFFE
FE1FFFFE
FE1FFFFE
FFFFE000
7FFFF0F0
7FFFFFFC
7FFFFFFC
3FFFFFF8
1FFFFFF0
0FFFFFE0
03FFFFC0
ENDCHAR
STARTCHAR 00E7
ENCODING 231
SWIDTH 591 0
DWIDTH 23 0
BBX 20 32 1 -7
BITMAP
007800
03FF00
0FFF80
1FFFC0
1FFFE0
3FFFE0
3FFFE0
7FCFE0
7F0000
7F0000
FF0000
FE0000
FE0000
FE0000
FE0000
FF0000
7F07F0
7F87F0
7FFFF0
3FFFE0
3FFFE0
1FFFC0
0FFF80
07FF00
01FC00
006000
007800
007C00
001C00
007C00
007C00
007000
ENDCHAR
STARTCHAR 00E8
ENCODING 232
SWIDTH 540 0
DWIDTH 21 0
BBX 18 29 1 -4
BITMAP
01E000
00E000
00F000
007000
003800
000000
000000
01F800
07FE00
0FFF00
1FFF80
3FFF80
3FFFC0
7F0FC0
7E07C0
7E07C0
FFFFC0
FFFFC0
FFFFC0
FFFFC0
7FFFC0
7E0000
7FBF80
7FFF80
3FFF80
1FFF80
1FFF00
07FE00
01F800
ENDCHAR
STARTCHAR 00E9
ENCODING 233
SWIDTH 540 0
DWIDTH 21 0
BBX 18 29 1 -4
BITMAP
001E00
003C00
007800
007000
00E000
000000
000000
03FC00
07FE00
0FFF00
1FFF80
3FFF80
3FFFC0
7F0FC0
7E07C0
7E07C0
FFFFC0
FFFFC0
FFFFC0
FFFFC0
7FFFC0
7E0000
7FBF80
7FFF80
3FFF80
1FFF80
1FFF00
07FE00
01F800
ENDCHAR
STARTCHAR 00EA
ENCODING 234
SWIDTH 540 0
DWIDTH 21 0
BBX 18 29 1 -4
BITMAP
007800
007800
00F800
01DC00
00DC00
000000
000000
01F800
07FE00
0FFF00
1FFF80
3FFF80
3FFFC0
7F0FC0
7E07C0
7E07C0
FFFFC0
FFFFC0
FFFFC0
FFFFC0
7FFFC0
7E0000
7FBF80
7FFF80
3FFF80
1FFF80
1FFF00
07FE00
01F800
ENDCHAR
STARTCHAR 00EB
ENCODING 235
SWIDTH 540 0
DWIDTH 21 0
BBX 18 27 1 -3
BITMAP
005800
00FC00
000000
000000
000000
01FC00
07FE00
0FFF00
1FFF80
3FFF80
3FFFC0
7F0FC0
7E07C0
7E07C0
FFFFC0
FFFFC0
FFFFC0
FFFFC0
7FFFC0
7E0000
7FBF80
7FFF80
3FFF80
1FFF80
1FFF00
07FE00
01F800
ENDCHAR
STARTCHAR 00EC
ENCODING 236
SWIDTH 257 0
DWIDTH 10 0
BBX 7 27 2 1
BITMAP
F0
78
38
1C
1C
00
00
FE
FE
FE
FE
FE
FE
FE
FE
FE
FE
FE
FE
FE
FE
FE
FE
FE
FE
FE
FE
ENDCHAR
STARTCHAR 00ED
ENCODING 237
SWIDTH 257 0
DWIDTH 10 0
BBX 8 27 2 1
BITMAP
0F
1E
1C
38
38
00
00
FE
FE
FE
FE
FE
FE
FE
FE
FE
FE
FE
FE
FE
FE
FE
FE
FE
FE
FE
FE
ENDCHAR
STARTCHAR 00EE
ENCODING 238
SWIDTH 257 0
DWIDTH 10 0
BBX 7 28 2 1
BITMAP
38
38
7C
FC
EE
4C
00
00
FE
FE
FE
FE
FE
FE
FE
FE
FE
FE
FE
FE
FE
FE
FE
FE
FE
FE
FE
FE
ENDCHAR
STARTCHAR 00EF
ENCODING 239
SWIDTH 257 0
DWIDTH 10 0
BBX 7 24 2 1
BITMAP
6C
6C
00
00
FE
FE
FE
FE
FE
FE
FE
FE
FE
FE
FE
FE
FE
FE
FE
FE
FE
FE
FE
FE
ENDCHAR
STARTCHAR 00F0
ENCODING 240
SWIDTH 565 0
DWIDTH 22 0
BBX 21 31 2 -1
BITMAP
000FE0
000FE0
01FFF8
01FFF8
01FFF8
000FE0
000FE0
00FFE0
07FFE0
0FFFE0
1FFFE0
3FFFE0
7FFFE0
7FFFE0
FFFFE0
FF8FE0
FF0FE0
FE0FE0
FE0FE0
FE0FE0
FE0FE0
FF0FE0
FF8FE0
FFFFE0
7FFFE0
7FFFE0
3FFFE0
1FFFE0
0FFFE0
03FFE0
003FE0
ENDCHAR
STARTCHAR 00F1
ENCODING 241
SWIDTH 565 0
DWIDTH 22 0
BBX 19 28 2 3
BITMAP
038000
07C800
07FC00
067800
003000
000000
000000
03FE00
FFFF00
FFFF80
FFFFC0
FFFFC0
FF1FC0
FE1FE0
FE0FE0
FE0FE0
FE0FE0
FE0FE0
FE0FE0
FE0FE0
FE0FE0
FE0FE0
FE0FE0
FE0FE0
FE0FE0
FE0FE0
FE0FE0
FE0FE0
ENDCHAR
STARTCHAR 00F2
ENCODING 242
SWIDTH 642 0
DWIDTH 25 0
BBX 21 28 2 1
BITMAP
01E000
00F000
007000
003800
001C00
000000
01F800
07FF00
0FFF80
1FFFC0
3FFFE0
7FFFF0
FFFFF0
FF8FF8
FE07F8
FE03F8
FE03F8
FE03F8
FE03F8
FE07F8
FF8FF8
FFFFF0
7FFFF0
3FFFE0
1FFFC0
0FFF80
07FF00
01FC00
ENDCHAR
STARTCHAR 00F3
ENCODING 243
SWIDTH 642 0
DWIDTH 25 0
BBX 21 28 2 1
BITMAP
003C00
007800
007000
00E000
00C000
000000
01F800
07FF00
0FFF80
1FFFC0
3FFFE0
7FFFF0
FFFFF0
FF8FF8
FE07F8
FE03F8
FE03F8
FE03F8
FE03F8
FE07F8
FF8FF8
FFFFF0
7FFFF0
3FFFE0
1FFFC0
0FFF80
07FF00
01FC00
ENDCHAR
STARTCHAR 00F4
ENCODING 244
SWIDTH 642 0
DWIDTH 25 0
BBX 21 29 2 1
BITMAP
007000
00F800
00F800
01DC00
01DC00
000000
000000
01F800
07FF00
0FFF80
1FFFC0
3FFFE0
7FFFF0
FFFFF0
FF8FF8
FE07F8
FE03F8
FE03F8
FE03F8
FE03F8
FE07F8
FF8FF8
FFFFF0
7FFFF0
3FFFE0
1FFFC0
0FFF80
07FF00
01FC00
ENDCHAR
STARTCHAR 00F5
ENCODING 245
SWIDTH 642 0
DWIDTH 25 0
BBX 21 29 2 2
BITMAP
00C000
03E400
03FE00
033C00
001800
000000
01F800
07FF00
0FFF80
1FFFC0
3FFFE0
7FFFF0
7FFFF0
FF8FF8
FF07F8
FE03F8
FE03F8
FE03F8
FE03F8
FE03F8
FF07F8
FF8FF8
7FFFF0
7FFFF0
3FFFE0
1FFFC0
0FFF80
07FF00
01FC00
ENDCHAR
STARTCHAR 00F6
ENCODING 246
SWIDTH 642 0
DWIDTH 25 0
BBX 21 26 2 1
BITMAP
00D800
00D800
000000
000000
01F800
07FF00
0FFF80
1FFFC0
3FFFE0
7FFFF0
FFFFF0
FF8FF8
FE07F8
FE03F8
FE03F8
FE03F8
FE03F8
FE07F8
FF8FF8
FFFFF0
7FFFF0
3FFFE0
1FFFC0
0FFF80
07FF00
01FC00
ENDCHAR
STARTCHAR 00F7
ENCODING 247
SWIDTH 411 0
DWIDTH 16 0
BBX 14 17 1 3
BITMAP
0780
0780
0FC0
0780
0780
0000
FFFC
FFFC
FFFC
FFFC
FFFC
0000
0780
0780
0FC0
0780
0780
ENDCHAR
STARTCHAR 00F8
ENCODING 248
SWIDTH 642 0
DWIDTH 25 0
BBX 21 29 2 -3
BITMAP
000400
000F80
000FC0
000F80
03FF80
0FFF80
1FFFC0
3FFFE0
7FFFE0
7FFFF0
FFFFF0
FF7FF8
FEFFF8
FEFFF8
FEFBF8
FFFBF8
FFFBF8
FFF7F8
FFFFF8
7FFFF0
7FFFF0
3FFFE0
1FFFC0
0FFF80
0FFE00
0FF800
1F8000
0F0000
010000
ENDCHAR
STARTCHAR 00F9
ENCODING 249
SWIDTH 540 0
DWIDTH 21 0
BBX 17 28 2 -4
BITMAP
078000
038000
03C000
01C000
00E000
000000
000000
FE0000
FE3F80
FE3F80
FE3F80
FE3F80
FE3F80
FE3F80
FE3F80
FE3F80
FE3F80
FE3F80
FE3F80
FE3F80
FF7F80
FFFF80
FFFF00
7FFF00
7FFE00
3FFC00
1FF800
07E000
ENDCHAR
STARTCHAR 00FA
ENCODING 250
SWIDTH 540 0
DWIDTH 21 0
BBX 17 28 2 -4
BITMAP
007800
007000
00F000
00E000
01C000
000000
000000
FE0000
FE3F80
FE3F80
FE3F80
FE3F80
FE3F80
FE3F80
FE3F80
FE3F80
FE3F80
FE3F80
FE3F80
FE3F80
FF7F80
FFFF80
FFFF00
7FFF00
7FFE00
3FFC00
1FF800
07E000
ENDCHAR
STARTCHAR 00FB
ENCODING 251
SWIDTH 540 0
DWIDTH 21 0
BBX 17 29 2 -4
BITMAP
00C000
01E000
03E000
03E000
077000
036000
000000
000000
FE0000
FE3F80
FE3F80
FE3F80
FE3F80
FE3F80
FE3F80
FE3F80
FE3F80
FE3F80
FE3F80
FE3F80
FE3F80
FF7F80
FFFF80
FFFF00
7FFF00
7FFE00
3FFC00
1FF800
07E000
ENDCHAR
STARTCHAR 00FC
ENCODING 252
SWIDTH 540 0
DWIDTH 21 0
BBX 17 26 2 -4
BITMAP
036000
036000
000000
000000
000000
FE3F80
FE3F80
FE3F80
FE3F80
FE3F80
FE3F80
FE3F80
FE3F80
FE3F80
FE3F80
FE3F80
FE3F80
FE3F80
FF7F80
FFFF80
FFFF00
7FFF00
7FFE00
3FFC00
1FF800
07E000
ENDCHAR
STARTCHAR 00FD
ENCODING 253
SWIDTH 565 0
DWIDTH 22 0
BBX 21 34 1 -10
BITMAP
001E00
001C00
003800
003800
007000
000000
000000
7F07F8
7F07F0
7F07F0
7F07F0
7F0FF0
7F0FE0
7F0FE0
7F0FE0
7F1FC0
7F1FC0
7FBFC0
7FFFC0
7FFF80
3FFF80
1FFF80
0FFF80
03FF00
007F00
00FF00
11FF00
3FFE00
3FFE00
7FFC00
FFFC00
FFF800
FFF000
3FC000
ENDCHAR
STARTCHAR 00FF
ENCODING 255
SWIDTH 565 0
DWIDTH 22 0
BBX 21 31 1 -10
BITMAP
00D800
00D800
000000
000000
7F07F8
7F07F0
7F07F0
7F07F0
7F0FF0
7F0FE0
7F0FE0
7F0FE0
7F1FC0
7F1FC0
7F3FC0
7FFFC0
7FFF80
3FFF80
1FFF80
0FFF80
03FF00
007F00
00FF00
11FF00
3FFE00
3FFE00
7FFC00
FFFC00
FFF800
FFF000
3FC000
ENDCHAR
STARTCHAR 0131
ENCODING 305
SWIDTH 257 0
DWIDTH 10 0
BBX 7 20 2 1
BITMAP
FE
FE
FE
FE
FE
FE
FE
FE
FE
FE
FE
FE
FE
FE
FE
FE
FE
FE
FE
FE
ENDCHAR
STARTCHAR 0152
ENCODING 338
SWIDTH 822 0
DWIDTH 32 0
BBX 30 29 1 0
BITMAP
003FFFFC
01FFFFFC
03FFFFFC
07FFFFFC
0FFFFFFC
1FFFFFFC
3FFFFFFC
3FE3F800
7FC3F800
7F83F800
7F03F800
FF03F800
FE03FFC0
FE03FFC0
FE03FFC0
FE03FFC0
FF03FFC0
FF03FFC0
7F03FFC0
7F83F800
7FC3F800
3FF3F800
3FFFFFFC
1FFFFFFC
0FFFFFFC
07FFFFFC
03FFFFFC
00FFFFFC
003FFFFC
ENDCHAR
STARTCHAR 0153
ENCODING 339
SWIDTH 951 0
DWIDTH 37 0
BBX 34 22 1 0
BITMAP
00FC00F000
03FF87FC00
0FFFCFFE00
1FFFFFFF00
1FFFFFFF80
3FFFFFFF80
7FFFFF1F80
7F87FE0FC0
7F03FE07C0
FF01FFFFC0
FE01FFFFC0
FE01FFFFC0
FF01FFFFC0
7F03FFFFC0
7F87FE0000
7FFFFF1E00
3FFFFFFF80
1FFFFFFF80
1FFFFFFF00
0FFFDFFF00
03FF8FFE00
00FC07F800
ENDCHAR
STARTCHAR 0178
ENCODING 376
SWIDTH 668 0
DWIDTH 26 0
BBX 24 32 1 0
BITMAP
003600
003600
000000
040020
0E0078
3E007E
FF00FF
FF80FF
7F81FE
3FC1FE
3FC3FC
1FE7F8
1FF7F8
0FFFF0
07FFF0
07FFE0
03FFE0
01FFC0
01FFC0
00FF80
00FF00
007F00
007F00
007F00
007F00
007F00
007F00
007F00
007F00
007F00
007F00
007F00
ENDCHAR
STARTCHAR 02C6
ENCODING 710
SWIDTH 257 0
DWIDTH 10 0
BBX 7 6 1 24
BITMAP
1C
3C
7E
7E
E6
20
ENDCHAR
STARTCHAR 02DA
ENCODING 730
SWIDTH 231 0
DWIDTH 9 0
BBX 6 6 1 24
BITMAP
38
7C
CC
CC
7C
38
ENDCHAR
STARTCHAR 02DC
ENCODING 732
SWIDTH 308 0
DWIDTH 12 0
BBX 10 5 1 26
BITMAP
3800
7D80
FFC0
EF80
0300
ENDCHAR
STARTCHAR 2018
ENCODING 8216
SWIDTH 257 0
DWIDTH 10 0
BBX 6 9 2 20
BITMAP
E0
E0
F0
F0
F0
F8
F8
F8
FC
ENDCHAR
STARTCHAR 2019
ENCODING 8217
SWIDTH 257 0
DWIDTH 10 0
BBX 5 9 2 20
BITMAP
F8
F8
F8
F8
F0
F0
F0
E0
E0
ENDCHAR
STARTCHAR 201A
ENCODING 8218
SWIDTH 282 0
DWIDTH 11 0
BBX 7 9 2 -3
BITMAP
FE
FE
FC
FC
F8
F8
F0
F0
E0
ENDCHAR
STARTCHAR 201C
ENCODING 8220
SWIDTH 411 0
DWIDTH 16 0
BBX 12 9 2 20
BITMAP
E3C0
E3C0
F3C0
F1E0
F1E0
F9E0
F9E0
F9F0
FDF0
ENDCHAR
STARTCHAR 201D
ENCODING 8221
SWIDTH 411 0
DWIDTH 16 0
BBX 12 9 2 20
BITMAP
F9F0
F9F0
F9E0
F9E0
F1E0
F1C0
F3C0
E3C0
E3C0
ENDCHAR
STARTCHAR 201E
ENCODING 8222
SWIDTH 488 0
DWIDTH 19 0
BBX 16 9 2 -3
BITMAP
FE7F
FE7E
FC7E
FC7C
F8FC
F8F8
F0F8
F0F0
E0E0
ENDCHAR
STARTCHAR 2026
ENCODING 8230
SWIDTH 745 0
DWIDTH 29 0
BBX 25 6 2 0
BITMAP
381C0700
7C3E0F80
FC3F0F80
7C3F0F80
7C1E0F80
300C0600
ENDCHAR
STARTCHAR 2030
ENCODING 8240
SWIDTH 1131 0
DWIDTH 44 0
BBX 41 29 1 0
BITMAP
060080000000
1FC1E0000000
3FE1FC000000
7FE1FC000000
79F3FC000000
F0F3F8000000
F0F7F8000000
70F7F0000000
7FE7F0000000
7FEFF0000000
3FCFE0000000
0F9FE0000000
001FE0000000
001FC0000000
003FC0000000
003F80000000
003F80000000
007F82001000
007F1FC0FE00
00FF3FE1FF00
00FF7FF3FF00
00FE78F3C780
01FE78738780
01FC70778780
01FC78F3C780
03FC7FF3FF80
03F83FE3FF00
00781FC1FE00
00180F807C00
ENDCHAR
STARTCHAR 2039
ENCODING 8249
SWIDTH 514 0
DWIDTH 20 0
BBX 16 20 2 3
BITMAP
001C
007C
01FE
03FE
0FFF
3FFF
FFFE
FFF8
FFE0
FF80
FFE0
FFF0
7FFC
3FFE
0FFF
03FE
01FE
007C
0038
0008
ENDCHAR
STARTCHAR 203A
ENCODING 8250
SWIDTH 514 0
DWIDTH 20 0
BBX 17 20 2 3
BITMAP
180000
3E0000
3F8000
7FE000
FFF800
FFFE00
3FFF80
1FFF80
07FF80
01FF80
03FF80
0FFF80
1FFE00
7FFC00
FFF000
7FE000
3F8000
3F0000
1C0000
080000
ENDCHAR
STARTCHAR 20AC
ENCODING 8364
SWIDTH 360 0
DWIDTH 14 0
BBX 12 26 1 0
BITMAP
00E0
03E0
07E0
0FF0
0FF0
1FF0
1FF0
3FC0
3F80
FFF0
FFF0
FFF0
FFF0
FFF0
FFF0
FFF0
FFF0
3F80
3FC0
1FE0
1FE0
0FE0
0FE0
07E0
01E0
0060
ENDCHAR
STARTCHAR 2122
ENCODING 8482
SWIDTH 514 0
DWIDTH 20 0
BBX 18 11 1 18
BITMAP
FEE380
FEE380
FEF380
38F780
38F7C0
38FFC0
38FFC0
38DFC0
39DDC0
39CDC0
380000
ENDCHAR
ENDFONT
